<svg width="20" height="20" viewBox="0 0 20 20" fill="none" xmlns="http://www.w3.org/2000/svg">
<path d="M7.49935 0.833984V2.50065H12.4993V0.833984H14.166V2.50065H17.4993C17.9596 2.50065 18.3327 2.87375 18.3327 3.33398V16.6673C18.3327 17.1276 17.9596 17.5007 17.4993 17.5007H2.49935C2.03912 17.5007 1.66602 17.1276 1.66602 16.6673V3.33398C1.66602 2.87375 2.03912 2.50065 2.49935 2.50065H5.83268V0.833984H7.49935ZM16.666 9.16732H3.33268V15.834H16.666V9.16732ZM9.16602 10.834V14.1673H4.99935V10.834H9.16602ZM5.83268 4.16732H3.33268V7.50065H16.666V4.16732H14.166V5.83398H12.4993V4.16732H7.49935V5.83398H5.83268V4.16732Z" fill="#18181B"/>
</svg>
