<svg width="28" height="28" viewBox="0 0 28 28" fill="none" xmlns="http://www.w3.org/2000/svg">
<path d="M13.993 6.44569e-05C10.7559 0.00168446 7.61939 1.12502 5.1173 3.1789C2.61521 5.23278 0.902179 8.09031 0.269779 11.265C-0.362621 14.4397 0.124679 17.7355 1.64876 20.5914C3.17283 23.4473 5.63948 25.6868 8.6289 26.9287C11.6183 28.1706 14.9457 28.3382 18.0447 27.403C21.1438 26.4677 23.823 24.4875 25.6264 21.7992C27.4297 19.1109 28.2457 15.8808 27.9356 12.6586C27.6254 9.43641 26.2082 6.4212 23.9251 4.12628C22.6262 2.81392 21.0791 1.7732 19.3739 1.06479C17.6687 0.356384 15.8395 -0.00555554 13.993 6.44569e-05ZM16.6345 6.77827C15.7619 6.92771 14.8783 7.00307 13.993 7.00355C13.1078 7.00307 12.2241 6.92771 11.3515 6.77827C12.0916 3.98155 13.1666 2.33456 13.993 2.33456C14.8194 2.33456 15.8945 3.98155 16.6345 6.77827ZM17.7002 2.9427C19.0214 3.38177 20.2524 4.05599 21.3338 4.93285C20.588 5.46489 19.7695 5.88707 18.9036 6.18648C18.6232 5.06418 18.2196 3.97632 17.7002 2.9427ZM10.5135 12.8398C10.5518 11.5758 10.6688 10.3155 10.8636 9.0661C11.8969 9.2477 12.944 9.33871 13.993 9.33801C15.0401 9.33831 16.0853 9.2473 17.1166 9.0661C17.3114 10.3155 17.4284 11.5758 17.4668 12.8398H10.5135ZM17.4726 15.1743C17.4342 16.4382 17.3173 17.6986 17.1224 18.948C15.0558 18.5854 12.9419 18.5854 10.8753 18.948C10.6766 17.6988 10.5557 16.4385 10.5135 15.1743H17.4726ZM9.0824 6.18648C8.2165 5.88707 7.39809 5.46489 6.6522 4.93285C7.73408 4.05806 8.965 3.38583 10.2858 2.94853C9.7668 3.98029 9.3632 5.06618 9.0824 6.18648ZM8.598 8.4895C8.3631 9.9288 8.2227 11.3821 8.1778 12.8398H2.37773C2.60107 10.5468 3.50467 8.373 4.97253 6.59735C6.06261 7.43279 7.28926 8.073 8.598 8.4895ZM8.1778 15.1743C8.2227 16.632 8.3631 18.0852 8.598 19.5246C7.29202 19.9404 6.06781 20.5789 4.97953 21.4121C3.51403 19.6363 2.60925 17.4652 2.38007 15.1743H8.1778ZM9.0824 21.8276C9.3622 22.949 9.765 24.0361 10.2835 25.069C8.9688 24.6283 7.74346 23.9563 6.66504 23.0847C7.40683 22.5527 8.2208 22.1293 9.0824 21.8276ZM11.3515 21.244C13.0997 20.9436 14.8863 20.9436 16.6345 21.244C15.8945 24.0325 14.8194 25.6795 13.993 25.6795C13.1666 25.6795 12.0916 24.0325 11.3515 21.2358V21.244ZM18.9036 21.8276C19.7666 22.1278 20.5822 22.55 21.3257 23.0812C20.2473 23.9528 19.0219 24.6248 17.7072 25.0655C18.2238 24.0335 18.6251 22.9476 18.9036 21.8276ZM19.388 19.5293C19.6231 18.0884 19.7635 16.6336 19.8083 15.1743H25.606C25.3771 17.4651 24.4728 19.6362 23.0077 21.4121C21.919 20.5788 20.6944 19.9402 19.388 19.5246V19.5293ZM19.8083 12.8398C19.7633 11.3821 19.6229 9.9288 19.388 8.4895C20.6968 8.073 21.9234 7.43279 23.0135 6.59735C24.4814 8.373 25.385 10.5468 25.6083 12.8398H19.8083Z" fill="#0B3947"/>
</svg>
