<svg width="20" height="20" viewBox="0 0 20 20" fill="none" xmlns="http://www.w3.org/2000/svg">
<path d="M16.32 1.92H15.36V0.96C15.36 0.384 14.976 0 14.4 0C13.824 0 13.44 0.384 13.44 0.96V1.92H5.76V0.96C5.76 0.384 5.376 0 4.8 0C4.224 0 3.84 0.384 3.84 0.96V1.92H2.88C1.248 1.92 0 3.168 0 4.8V5.75999H19.2V4.8C19.2 3.168 17.952 1.92 16.32 1.92ZM0 16.32C0 17.952 1.248 19.2 2.88 19.2H16.32C17.952 19.2 19.2 17.952 19.2 16.32V7.67999H0V16.32ZM14.4 9.59999C14.976 9.59999 15.36 9.98399 15.36 10.56C15.36 11.136 14.976 11.52 14.4 11.52C13.824 11.52 13.44 11.136 13.44 10.56C13.44 9.98399 13.824 9.59999 14.4 9.59999ZM14.4 13.44C14.976 13.44 15.36 13.824 15.36 14.4C15.36 14.976 14.976 15.36 14.4 15.36C13.824 15.36 13.44 14.976 13.44 14.4C13.44 13.824 13.824 13.44 14.4 13.44ZM9.6 9.59999C10.176 9.59999 10.56 9.98399 10.56 10.56C10.56 11.136 10.176 11.52 9.6 11.52C9.024 11.52 8.64 11.136 8.64 10.56C8.64 9.98399 9.024 9.59999 9.6 9.59999ZM9.6 13.44C10.176 13.44 10.56 13.824 10.56 14.4C10.56 14.976 10.176 15.36 9.6 15.36C9.024 15.36 8.64 14.976 8.64 14.4C8.64 13.824 9.024 13.44 9.6 13.44ZM4.8 9.59999C5.376 9.59999 5.76 9.98399 5.76 10.56C5.76 11.136 5.376 11.52 4.8 11.52C4.224 11.52 3.84 11.136 3.84 10.56C3.84 9.98399 4.224 9.59999 4.8 9.59999ZM4.8 13.44C5.376 13.44 5.76 13.824 5.76 14.4C5.76 14.976 5.376 15.36 4.8 15.36C4.224 15.36 3.84 14.976 3.84 14.4C3.84 13.824 4.224 13.44 4.8 13.44Z" fill="#BDBDBD"/>
</svg>
