<svg width="22" height="18" viewBox="0 0 22 18" fill="none" xmlns="http://www.w3.org/2000/svg">
<path d="M0.010125 5.86755L0 2.39062C0 2.02851 0.320625 1.76132 0.658125 1.83867L1.85963 2.1164C2.21738 2.19726 2.50763 2.46445 2.63588 2.81953L3.24 4.5L7.53637 5.82187L6.13575 0.717187C6.03787 0.35859 6.29775 0 6.65549 0H8.00887C8.40037 0 8.75812 0.217965 8.95049 0.573045L12.6292 7.3863L16.2472 8.5008C16.7839 8.66603 17.2867 8.94022 17.7221 9.30233L18.8831 10.2727C19.6931 10.9477 19.494 12.2871 18.522 12.6703C17.1315 13.2188 15.6127 13.3066 14.175 12.9164L4.10738 10.1883C3.73275 10.0863 3.39188 9.88245 3.1185 9.59415L0.320625 6.65858C0.1215 6.44768 0.00674996 6.16643 0.00674996 5.86755H0.010125ZM1.08 15.75H20.52C21.1174 15.75 21.6 16.2527 21.6 16.875C21.6 17.4973 21.1174 18 20.52 18H1.08C0.482625 18 0 17.4973 0 16.875C0 16.2527 0.482625 15.75 1.08 15.75ZM4.32 12.9375C4.32 12.6391 4.43378 12.3529 4.63632 12.142C4.83886 11.931 5.11356 11.8125 5.4 11.8125C5.68643 11.8125 5.96114 11.931 6.16367 12.142C6.36622 12.3529 6.47999 12.6391 6.47999 12.9375C6.47999 13.2359 6.36622 13.522 6.16367 13.733C5.96114 13.944 5.68643 14.0625 5.4 14.0625C5.11356 14.0625 4.83886 13.944 4.63632 13.733C4.43378 13.522 4.32 13.2359 4.32 12.9375ZM8.63999 12.375C8.92642 12.375 9.20114 12.4935 9.40364 12.7045C9.60622 12.9154 9.71999 13.2016 9.71999 13.5C9.71999 13.7984 9.60622 14.0845 9.40364 14.2955C9.20114 14.5065 8.92642 14.625 8.63999 14.625C8.35357 14.625 8.07884 14.5065 7.87634 14.2955C7.67377 14.0845 7.55999 13.7984 7.55999 13.5C7.55999 13.2016 7.67377 12.9154 7.87634 12.7045C8.07884 12.4935 8.35357 12.375 8.63999 12.375Z" fill="#BDBDBD"/>
</svg>
