<svg width="18" height="21" viewBox="0 0 18 21" fill="none" xmlns="http://www.w3.org/2000/svg">
<path d="M8.6607 0C3.88848 0 0 3.87743 0 8.64968C0 12.2509 4.47396 17.5202 7.13625 20.3372C7.52288 20.757 8.08628 21 8.6607 21C9.2241 21 9.7875 20.757 10.1741 20.3372C12.8364 17.5202 17.3104 12.2509 17.3104 8.64968C17.3104 3.87743 13.4219 0 8.6607 0ZM8.6607 11.0413C6.82695 11.0413 5.34667 9.561 5.34667 7.72725C5.34667 5.90453 6.82695 4.4132 8.6607 4.4132C10.4834 4.4132 11.9747 5.90453 11.9747 7.72725C11.9747 9.561 10.4834 11.0413 8.6607 11.0413Z" fill="#0B3947"/>
</svg>
