<svg width="102" height="102" viewBox="0 0 102 102" fill="none" xmlns="http://www.w3.org/2000/svg">
<path d="M51 102C79.1665 102 102 79.1665 102 51C102 22.8335 79.1665 0 51 0C22.8335 0 0 22.8335 0 51C0 79.1665 22.8335 102 51 102Z" fill="#E7EAEA"/>
<path d="M81.5999 102H20.3999V36.0399C23.2845 36.0367 26.05 34.8894 28.0896 32.8497C30.1293 30.81 31.2767 28.0445 31.2799 25.1599H70.7199C70.7168 26.5889 70.9972 28.0042 71.5447 29.3241C72.0923 30.644 72.8961 31.8422 73.9098 32.8493C74.9169 33.8633 76.1152 34.6674 77.4352 35.2151C78.7552 35.7627 80.1708 36.0431 81.5999 36.0399V102Z" fill="white"/>
<rect x="35" y="37" width="32" height="32" rx="10" fill="white"/>
<path fill-rule="evenodd" clip-rule="evenodd" d="M57.7134 49.9756L49.9186 57.7639C49.6872 57.9953 49.3754 58.1249 49.0488 58.1249C48.7223 58.1249 48.4088 57.9953 48.1774 57.7639L44.2866 53.8698C43.8057 53.3889 43.8057 52.6095 44.2866 52.1286C44.769 51.6478 45.5485 51.6511 46.0277 52.1286L49.0488 55.153L55.9723 48.2344C56.4531 47.7536 57.2326 47.7553 57.7134 48.2344C58.1943 48.7153 58.1943 49.4948 57.7134 49.9756ZM51 37C39.1879 37 35 41.1879 35 53C35 64.8121 39.1879 69 51 69C62.8121 69 67 64.8121 67 53C67 41.1879 62.8121 37 51 37Z" fill="#1ECE84"/>
<path d="M59.8401 73.4399H42.1601C41.0335 73.4399 40.1201 74.3533 40.1201 75.4799C40.1201 76.6066 41.0335 77.5199 42.1601 77.5199H59.8401C60.9668 77.5199 61.8801 76.6066 61.8801 75.4799C61.8801 74.3533 60.9668 73.4399 59.8401 73.4399Z" fill="#DFEAFB"/>
<path d="M65.96 81.6H36.04C34.9133 81.6 34 82.5133 34 83.64C34 84.7666 34.9133 85.68 36.04 85.68H65.96C67.0867 85.68 68 84.7666 68 83.64C68 82.5133 67.0867 81.6 65.96 81.6Z" fill="#DFEAFB"/>
</svg>
