<svg width="15" height="15" viewBox="0 0 15 15" fill="none" xmlns="http://www.w3.org/2000/svg">
<path fill-rule="evenodd" clip-rule="evenodd" d="M6.01105 1.48086C7.27309 1.19571 8.5935 1.32617 9.77534 1.85277C10.1117 2.00262 10.5058 1.85146 10.6556 1.51515C10.8055 1.17883 10.6543 0.784718 10.318 0.634864C8.87353 -0.00875549 7.2597 -0.168202 5.71721 0.180305C4.17471 0.528811 2.78619 1.3666 1.75874 2.56872C0.731285 3.77084 0.119946 5.27288 0.0158963 6.85083C-0.0881531 8.42878 0.320662 9.99809 1.18137 11.3247C2.04208 12.6513 3.30857 13.6642 4.79195 14.2122C6.27533 14.7603 7.89612 14.8141 9.4126 14.3657C10.9291 13.9173 12.26 12.9908 13.2068 11.7242C14.1537 10.4576 14.6658 8.91891 14.6667 7.33753V7.33715V6.72382C14.6667 6.35563 14.3682 6.05715 14 6.05715C13.6318 6.05715 13.3333 6.35563 13.3333 6.72382V7.33677C13.3326 8.63062 12.9136 9.88957 12.1389 10.9259C11.3642 11.9622 10.2753 12.7203 9.03455 13.0871C7.79379 13.454 6.46769 13.4099 5.25402 12.9615C4.04034 12.5131 3.00413 11.6844 2.29991 10.599C1.59569 9.51359 1.26121 8.22961 1.34634 6.93856C1.43147 5.64751 1.93166 4.41856 2.7723 3.43501C3.61295 2.45146 4.74901 1.766 6.01105 1.48086ZM14.4716 2.47499C14.7319 2.21451 14.7316 1.7924 14.4712 1.53219C14.2107 1.27197 13.7886 1.27218 13.5284 1.53266L7.3331 7.73411L5.80474 6.20575C5.54439 5.94541 5.12228 5.94541 4.86193 6.20575C4.60158 6.4661 4.60158 6.88821 4.86193 7.14856L6.86193 9.14856C6.98699 9.27363 7.15663 9.34387 7.3335 9.34383C7.51037 9.34378 7.67997 9.27346 7.80497 9.14833L14.4716 2.47499Z" fill="#3E3E3E"/>
</svg>
