<svg width="39" height="39" viewBox="0 0 39 39" fill="none" xmlns="http://www.w3.org/2000/svg">
<path d="M22.75 6.5H16.25C10.1217 6.5 7.05757 6.5 5.15375 8.4038C3.783 9.77455 3.39921 11.7468 3.29175 15.0312H35.7082C35.6008 11.7468 35.217 9.77455 33.8461 8.4038C31.9424 6.5 28.8782 6.5 22.75 6.5Z" fill="#062833"/>
<path d="M16.25 32.5H22.75C28.8782 32.5 31.9425 32.5 33.8461 30.5961C35.75 28.6925 35.75 25.6282 35.75 19.5C35.75 18.7819 35.75 18.1057 35.7469 17.4688H3.25307C3.25 18.1057 3.25 18.7819 3.25 19.5C3.25 25.6282 3.25 28.6925 5.1538 30.5961C7.05762 32.5 10.1217 32.5 16.25 32.5Z" fill="#062833"/>
<path fill-rule="evenodd" clip-rule="evenodd" d="M8.53125 26C8.53125 25.3269 9.07691 24.7812 9.75 24.7812H16.25C16.9231 24.7812 17.4688 25.3269 17.4688 26C17.4688 26.6731 16.9231 27.2188 16.25 27.2188H9.75C9.07691 27.2188 8.53125 26.6731 8.53125 26Z" fill="white"/>
<path fill-rule="evenodd" clip-rule="evenodd" d="M19.0938 26C19.0938 25.3269 19.6394 24.7812 20.3125 24.7812H22.75C23.4231 24.7812 23.9688 25.3269 23.9688 26C23.9688 26.6731 23.4231 27.2188 22.75 27.2188H20.3125C19.6394 27.2188 19.0938 26.6731 19.0938 26Z" fill="white"/>
</svg>
