<svg width="30" height="24" viewBox="0 0 30 24" fill="none" xmlns="http://www.w3.org/2000/svg">
<rect width="30" height="24" rx="4" fill="#E4E4E7"/>
<path d="M11.5 9V15C11.5 15.2967 11.588 15.5867 11.7528 15.8334C11.9176 16.08 12.1519 16.2723 12.426 16.3858C12.7001 16.4994 13.0017 16.5291 13.2926 16.4712C13.5836 16.4133 13.8509 16.2704 14.0607 16.0607C14.2704 15.8509 14.4133 15.5836 14.4712 15.2926C14.5291 15.0017 14.4994 14.7001 14.3858 14.426C14.2723 14.1519 14.08 13.9176 13.8334 13.7528C13.5867 13.588 13.2967 13.5 13 13.5H7C6.70333 13.5 6.41332 13.588 6.16665 13.7528C5.91997 13.9176 5.72771 14.1519 5.61418 14.426C5.50065 14.7001 5.47094 15.0017 5.52882 15.2926C5.5867 15.5836 5.72956 15.8509 5.93934 16.0607C6.14912 16.2704 6.41639 16.4133 6.70737 16.4712C6.99834 16.5291 7.29994 16.4994 7.57403 16.3858C7.84812 16.2723 8.08238 16.08 8.24721 15.8334C8.41203 15.5867 8.5 15.2967 8.5 15V9C8.5 8.70333 8.41203 8.41332 8.24721 8.16665C8.08238 7.91997 7.84812 7.72771 7.57403 7.61418C7.29994 7.50065 6.99834 7.47094 6.70737 7.52882C6.41639 7.5867 6.14912 7.72956 5.93934 7.93934C5.72956 8.14912 5.5867 8.41639 5.52882 8.70737C5.47094 8.99834 5.50065 9.29994 5.61418 9.57403C5.72771 9.84812 5.91997 10.0824 6.16665 10.2472C6.41332 10.412 6.70333 10.5 7 10.5H13C13.2967 10.5 13.5867 10.412 13.8334 10.2472C14.08 10.0824 14.2723 9.84812 14.3858 9.57403C14.4994 9.29994 14.5291 8.99834 14.4712 8.70737C14.4133 8.41639 14.2704 8.14912 14.0607 7.93934C13.8509 7.72956 13.5836 7.5867 13.2926 7.52882C13.0017 7.47094 12.7001 7.50065 12.426 7.61418C12.1519 7.72771 11.9176 7.91997 11.7528 8.16665C11.588 8.41332 11.5 8.70333 11.5 9Z" stroke="#27272B" stroke-linecap="round" stroke-linejoin="round"/>
<path d="M19.3828 6.88281H20.4961V12.1621L23.3262 9.4375H24.6387L22.0547 11.9102L25.043 16H23.7246L21.2988 12.6133L20.4961 13.3691V16H19.3828V6.88281Z" fill="#27272B"/>
</svg>
