<svg width="39" height="39" viewBox="0 0 39 39" fill="none" xmlns="http://www.w3.org/2000/svg">
<path d="M33.9784 18.0705V10.9368C33.9784 9.60426 32.9709 8.09301 31.7197 7.58926L22.6684 3.88426C20.6372 3.05551 18.3459 3.05551 16.3147 3.88426L7.2635 7.58926C6.0285 8.09301 5.021 9.60426 5.021 10.9368V18.0705C5.021 26.0167 10.7897 33.4592 18.6709 35.6367C19.2072 35.783 19.7922 35.783 20.3284 35.6367C28.2097 33.4592 33.9784 26.0167 33.9784 18.0705ZM20.7184 20.9142V25.188C20.7184 25.8542 20.1659 26.4067 19.4997 26.4067C18.8334 26.4067 18.2809 25.8542 18.2809 25.188V20.9142C16.6397 20.3942 15.4372 18.8667 15.4372 17.063C15.4372 14.8205 17.2572 13.0005 19.4997 13.0005C21.7422 13.0005 23.5622 14.8205 23.5622 17.063C23.5622 18.883 22.3597 20.3942 20.7184 20.9142Z" fill="#062833"/>
</svg>
