<svg width="20" height="20" viewBox="0 0 20 20" fill="none" xmlns="http://www.w3.org/2000/svg">
<path fill-rule="evenodd" clip-rule="evenodd" d="M15.36 1.92H16.32C17.952 1.92 19.2 3.168 19.2 4.8V5.76H0V4.8C0 3.168 1.248 1.92 2.88 1.92H3.84V0.96C3.84 0.384 4.224 0 4.8 0C5.376 0 5.76 0.384 5.76 0.96V1.92H13.44V0.96C13.44 0.384 13.824 0 14.4 0C14.976 0 15.36 0.384 15.36 0.96V1.92ZM2.88 19.2C1.248 19.2 0 17.952 0 16.32V7.68H19.2V16.32C19.2 17.952 17.952 19.2 16.32 19.2H2.88ZM13.2887 10.6756C12.9454 10.3615 12.426 10.3615 12.0826 10.6756L8.46855 13.9826L7.11728 12.7462C6.774 12.4321 6.25455 12.4321 5.91128 12.7462C5.74035 12.9025 5.64 13.114 5.64 13.3411C5.64 13.5682 5.74035 13.7797 5.91128 13.9362L7.86555 15.7244C8.02868 15.8737 8.2164 15.96 8.46855 15.96C8.72077 15.96 8.9085 15.8737 9.07162 15.7244L13.2887 11.8656C13.4597 11.7092 13.56 11.4977 13.56 11.2705C13.56 11.0435 13.4597 10.8319 13.2887 10.6756Z" fill="#BDBDBD"/>
</svg>
