<svg width="24" height="21" viewBox="0 0 24 21" fill="none" xmlns="http://www.w3.org/2000/svg">
<path d="M4.375 0C1.95875 0 0 1.95875 0 4.375V15.4583C0 17.8746 1.95875 19.8333 4.375 19.8333H11.9583C12.4416 19.8333 12.8333 19.4416 12.8333 18.9583C12.8333 18.4751 12.4416 18.0833 11.9583 18.0833H4.375C2.92525 18.0833 1.75 16.9081 1.75 15.4583V4.375C1.75 2.92525 2.92525 1.75 4.375 1.75H18.9583C20.4081 1.75 21.5833 2.92525 21.5833 4.375V9.625C21.5833 10.1082 21.9751 10.5 22.4583 10.5C22.9416 10.5 23.3333 10.1082 23.3333 9.625V4.375C23.3333 1.95875 21.3746 0 18.9583 0H4.375Z" fill="#00D474"/>
<path d="M5.25 6.41667C4.60567 6.41667 4.08333 5.89433 4.08333 5.25C4.08333 4.60567 4.60567 4.08333 5.25 4.08333C5.89433 4.08333 6.41667 4.60567 6.41667 5.25C6.41667 5.89433 5.89433 6.41667 5.25 6.41667Z" fill="#00D474"/>
<path d="M13.3813 11.048C13.6105 10.8188 13.9476 10.7351 14.2573 10.8304L22.424 13.3432C22.7658 13.4484 23.0092 13.7509 23.0387 14.1073C23.0682 14.4637 22.8779 14.8022 22.558 14.9621L19.0496 16.7163L17.2955 20.2247C17.1355 20.5445 16.7971 20.7349 16.4407 20.7054C16.0843 20.6759 15.7817 20.4325 15.6765 20.0907L13.1637 11.924C13.0684 11.6142 13.1521 11.2772 13.3813 11.048Z" fill="#00D474"/>
<path d="M9.33333 6.41667C8.689 6.41667 8.16667 5.89433 8.16667 5.25C8.16667 4.60567 8.689 4.08333 9.33333 4.08333C9.97766 4.08333 10.5 4.60567 10.5 5.25C10.5 5.89433 9.97766 6.41667 9.33333 6.41667Z" fill="#00D474"/>
<path d="M13.4167 6.41667C12.7723 6.41667 12.25 5.89433 12.25 5.25C12.25 4.60567 12.7723 4.08333 13.4167 4.08333C14.061 4.08333 14.5833 4.60567 14.5833 5.25C14.5833 5.89433 14.061 6.41667 13.4167 6.41667Z" fill="#00D474"/>
</svg>
