<svg width="25" height="25" viewBox="0 0 25 25" fill="none" xmlns="http://www.w3.org/2000/svg">
<path d="M12.1094 0C5.41992 0 0 5.41992 0 12.1094C0 18.7988 5.41992 24.2188 12.1094 24.2188C18.7988 24.2188 24.2188 18.7988 24.2188 12.1094C24.2188 5.41992 18.7988 0 12.1094 0ZM16.6255 15.2832L15.6489 16.5039C15.5848 16.584 15.5056 16.6507 15.4157 16.7002C15.3259 16.7497 15.2271 16.7811 15.1251 16.7924C15.0232 16.8037 14.92 16.7949 14.8214 16.7663C14.7229 16.7378 14.6309 16.6901 14.5508 16.626L11.2793 14.1982C11.0507 14.0152 10.8662 13.7832 10.7394 13.5192C10.6126 13.2552 10.5468 12.9662 10.5469 12.6733V5.07812C10.5469 4.87092 10.6292 4.67221 10.7757 4.5257C10.9222 4.37919 11.1209 4.29688 11.3281 4.29688H12.8906C13.0978 4.29688 13.2965 4.37919 13.4431 4.5257C13.5896 4.67221 13.6719 4.87092 13.6719 5.07812V12.1094L16.5039 14.1846C16.5841 14.2487 16.6508 14.328 16.7003 14.4179C16.7498 14.5079 16.7811 14.6067 16.7924 14.7087C16.8037 14.8107 16.7947 14.914 16.7661 15.0126C16.7375 15.1111 16.6897 15.2031 16.6255 15.2832Z" fill="#08D07A"/>
</svg>
