<svg width="13" height="13" viewBox="0 0 13 13" fill="none" xmlns="http://www.w3.org/2000/svg">
<path d="M11.375 0H0.872266C0.391016 0 0 0.396484 0 0.883203V11.3668C0 11.8535 0.391016 12.25 0.872266 12.25H11.375C11.8562 12.25 12.25 11.8535 12.25 11.3668V0.883203C12.25 0.396484 11.8562 0 11.375 0ZM3.70234 10.5H1.88672V4.65391H3.70508V10.5H3.70234ZM2.79453 3.85547C2.21211 3.85547 1.7418 3.38242 1.7418 2.80273C1.7418 2.22305 2.21211 1.75 2.79453 1.75C3.37422 1.75 3.84727 2.22305 3.84727 2.80273C3.84727 3.38516 3.37695 3.85547 2.79453 3.85547ZM10.5082 10.5H8.69258V7.65625C8.69258 6.97813 8.67891 6.10586 7.74922 6.10586C6.80312 6.10586 6.6582 6.84414 6.6582 7.60703V10.5H4.84258V4.65391H6.58437V5.45234H6.60898C6.85234 4.99297 7.4457 4.50898 8.32891 4.50898C10.1664 4.50898 10.5082 5.72031 10.5082 7.29531V10.5Z" fill="#54595F" fill-opacity="0.73"/>
</svg>
