<svg width="32" height="32" viewBox="0 0 32 32" fill="none" xmlns="http://www.w3.org/2000/svg">
<g clip-path="url(#clip0_17359_6658)">
<path d="M17.1809 11.8273H15.0645L11.703 2.24096L13.5705 1.61847L17.1809 11.8273Z" fill="#03D176"/>
<path d="M9.46193 2.98792L12.8234 10.3333L10.0844 8.96381L7.84346 3.9839L9.46193 2.98792Z" fill="#03D176"/>
<path d="M13.814 12.2746L12.3017 13.7552L3.1933 9.25699L4.0922 7.50573L13.814 12.2746Z" fill="#03D176"/>
<path d="M2.11467 11.3585L9.65532 14.2555L6.74015 15.1931L1.65498 13.2025L2.11467 11.3585Z" fill="#03D176"/>
<path d="M11.9508 14.6908L11.9822 16.807L2.44674 20.3102L1.79663 18.4522L11.9508 14.6908Z" fill="#03D176"/>
<path d="M3.22688 22.5398L10.5216 19.0699L9.19289 21.8288L4.24675 24.1434L3.22688 22.5398Z" fill="#03D176"/>
<path d="M12.4823 17.9277L13.9716 19.4314L9.52611 28.5657L7.76969 27.6769L12.4823 17.9277Z" fill="#03D176"/>
<path d="M11.6338 29.6322L14.4871 22.0749L15.4415 24.9846L13.4803 30.0812L11.6338 29.6322Z" fill="#03D176"/>
<path d="M14.9399 20.0242L17.0562 20.0005L20.5248 29.5486L18.6644 30.1919L14.9399 20.0242Z" fill="#03D176"/>
<path d="M22.757 28.7765L19.3135 21.4693L22.0676 22.808L24.3642 27.7625L22.757 28.7765Z" fill="#03D176"/>
<path d="M18.1768 19.5736L19.6681 18.0717L28.839 22.441L27.9649 24.2047L18.1768 19.5736Z" fill="#03D176"/>
<path d="M29.8879 20.3245L22.3072 17.5342L25.2088 16.5556L30.3216 18.4743L29.8879 20.3245Z" fill="#03D176"/>
<path d="M20.1937 17.0833L20.188 14.9668L29.7654 11.5799L30.3929 13.4457L20.1937 17.0833Z" fill="#03D176"/>
<path d="M29.0125 9.341L21.6761 12.722L23.0383 9.97937L28.0122 7.72518L29.0125 9.341Z" fill="#03D176"/>
<path d="M19.8114 13.8224L18.3121 12.3286L22.6968 3.16498L24.4591 4.04206L19.8114 13.8224Z" fill="#03D176"/>
<path d="M20.5821 2.11247L17.7791 9.68853L16.8053 6.78522L18.7326 1.67572L20.5821 2.11247Z" fill="#03D176"/>
</g>
<defs>
<clipPath id="clip0_17359_6658">
<rect width="32" height="32" fill="white"/>
</clipPath>
</defs>
</svg>
