<svg width="207" height="26" viewBox="0 0 207 26" fill="none" xmlns="http://www.w3.org/2000/svg">
<rect x="0.401163" y="0.401163" width="36.1047" height="24.8721" rx="4.41279" fill="white"/>
<rect x="0.401163" y="0.401163" width="36.1047" height="24.8721" rx="4.41279" stroke="#F2F4F7" stroke-width="0.802326"/>
<path fill-rule="evenodd" clip-rule="evenodd" d="M11.5011 16.9645H9.29768L7.64537 10.4755C7.56694 10.177 7.40042 9.91307 7.15548 9.78869C6.54418 9.47614 5.87058 9.22739 5.13574 9.10193V8.8521H8.68532C9.17521 8.8521 9.54263 9.22739 9.60387 9.66324L10.4612 14.344L12.6635 8.8521H14.8058L11.5011 16.9645ZM16.0305 16.9645H13.9496L15.6631 8.8521H17.7441L16.0305 16.9645ZM20.4364 11.0995C20.4976 10.6626 20.865 10.4128 21.2937 10.4128C21.9673 10.35 22.7011 10.4755 23.3134 10.787L23.6808 9.04032C23.0685 8.79049 22.3949 8.66504 21.7836 8.66504C19.7638 8.66504 18.2942 9.78873 18.2942 11.3483C18.2942 12.5347 19.3352 13.1576 20.07 13.5329C20.865 13.9071 21.1712 14.157 21.11 14.5312C21.11 15.0925 20.4976 15.3423 19.8863 15.3423C19.1515 15.3423 18.4166 15.1552 17.7441 14.8426L17.3767 16.5904C18.1115 16.9018 18.9065 17.0273 19.6414 17.0273C21.9061 17.0889 23.3134 15.9663 23.3134 14.2813C23.3134 12.1594 20.4364 12.035 20.4364 11.0995ZM30.5964 16.9645L28.9441 8.8521H27.1693C26.8019 8.8521 26.4345 9.10193 26.312 9.47614L23.2523 16.9645H25.3945L25.8221 15.7792H28.4542L28.6992 16.9645H30.5964ZM27.4753 11.0368L28.0866 14.0942H26.3731L27.4753 11.0368Z" fill="#172B85"/>
<rect x="42.9246" y="0.401163" width="36.1047" height="24.8721" rx="4.41279" fill="white"/>
<rect x="42.9246" y="0.401163" width="36.1047" height="24.8721" rx="4.41279" stroke="#F2F4F7" stroke-width="0.802326"/>
<path d="M65.605 5.38086C69.611 5.38086 72.8587 8.58957 72.8589 12.5479C72.8589 16.5063 69.6111 19.7158 65.605 19.7158C63.809 19.7157 62.1667 19.0693 60.8999 18.001C59.6332 19.069 57.9915 19.7157 56.1958 19.7158C52.1897 19.7158 48.9419 16.5063 48.9419 12.5479C48.9421 8.58957 52.1898 5.38086 56.1958 5.38086C57.9913 5.38098 59.6333 6.02689 60.8999 7.09473C62.1666 6.02661 63.8092 5.38096 65.605 5.38086Z" fill="#ED0006"/>
<path d="M65.605 5.38086C69.611 5.38086 72.8587 8.58957 72.8589 12.5479C72.8589 16.5063 69.6111 19.7158 65.605 19.7158C63.8093 19.7157 62.1676 19.069 60.9009 18.001C62.4597 16.6863 63.4487 14.7316 63.4487 12.5479C63.4486 10.3641 62.4598 8.40928 60.9009 7.09473C62.1675 6.02689 63.8095 5.38096 65.605 5.38086Z" fill="#F9A000"/>
<path d="M60.8999 7.09546C62.459 8.41009 63.4487 10.3646 63.4487 12.5486C63.4486 14.7324 62.4589 16.6862 60.8999 18.0007C59.3412 16.6862 58.3522 14.7321 58.3521 12.5486C58.3521 10.3648 59.3411 8.41009 60.8999 7.09546Z" fill="#FF5E00"/>
<rect x="85.4475" y="0.401163" width="36.1047" height="24.8721" rx="2.80814" fill="white"/>
<rect x="85.4475" y="0.401163" width="36.1047" height="24.8721" rx="2.80814" stroke="#F2F4F7" stroke-width="0.802326"/>
<path fill-rule="evenodd" clip-rule="evenodd" d="M100.68 19.7353L100.916 18.1851L100.39 18.1725H97.8784L99.624 6.73276C99.6294 6.69812 99.647 6.66597 99.6727 6.64309C99.6985 6.62022 99.7314 6.60767 99.7658 6.60767H104.001C105.407 6.60767 106.377 6.91002 106.884 7.50689C107.121 7.78689 107.273 8.07957 107.346 8.40154C107.423 8.73945 107.424 9.14311 107.349 9.63553L107.344 9.67135V9.98691L107.581 10.126C107.781 10.2357 107.94 10.3612 108.062 10.5048C108.265 10.7443 108.397 11.0486 108.452 11.4093C108.509 11.7803 108.49 12.2218 108.397 12.7217C108.288 13.2966 108.113 13.7974 107.876 14.2071C107.659 14.5846 107.382 14.8978 107.052 15.1404C106.738 15.371 106.365 15.546 105.943 15.6581C105.533 15.7681 105.067 15.8237 104.555 15.8237H104.226C103.99 15.8237 103.761 15.9114 103.582 16.0687C103.401 16.2292 103.282 16.4485 103.246 16.6884L103.221 16.828L102.804 19.5604L102.785 19.6607C102.78 19.6925 102.771 19.7083 102.758 19.719C102.747 19.7288 102.731 19.7353 102.715 19.7353H100.68Z" fill="#28356A"/>
<path fill-rule="evenodd" clip-rule="evenodd" d="M107.806 9.70801C107.794 9.79154 107.779 9.8769 107.763 9.96461C107.204 12.9286 105.294 13.9525 102.853 13.9525H101.611C101.312 13.9525 101.061 14.1764 101.014 14.4807L100.198 19.833C100.168 20.0329 100.317 20.2129 100.512 20.2129H102.715C102.976 20.2129 103.198 20.017 103.239 19.751L103.261 19.6353L103.676 16.9135L103.702 16.7643C103.743 16.4973 103.965 16.3013 104.226 16.3013H104.556C106.691 16.3013 108.363 15.4053 108.851 12.8123C109.055 11.7292 108.95 10.8247 108.409 10.1887C108.246 9.9969 108.043 9.83768 107.806 9.70801Z" fill="#298FC2"/>
<path fill-rule="evenodd" clip-rule="evenodd" d="M107.222 9.4672C107.137 9.44145 107.049 9.41818 106.958 9.39713C106.868 9.37661 106.775 9.35844 106.679 9.34249C106.344 9.28655 105.977 9.26001 105.583 9.26001H102.264C102.182 9.26001 102.104 9.27909 102.035 9.3136C101.882 9.38968 101.768 9.53949 101.741 9.72289L101.034 14.3459L101.014 14.4807C101.061 14.1764 101.312 13.9525 101.611 13.9525H102.853C105.294 13.9525 107.204 12.928 107.763 9.96459C107.78 9.87688 107.794 9.79152 107.806 9.70799C107.665 9.63047 107.512 9.56419 107.347 9.50772C107.306 9.49374 107.264 9.48027 107.222 9.4672Z" fill="#22284F"/>
<path fill-rule="evenodd" clip-rule="evenodd" d="M101.741 9.72285C101.768 9.53945 101.882 9.38964 102.035 9.31409C102.105 9.27945 102.182 9.26036 102.264 9.26036H105.584C105.977 9.26036 106.344 9.28703 106.679 9.34298C106.775 9.35879 106.868 9.37709 106.959 9.39762C107.049 9.41853 107.137 9.44193 107.222 9.46755C107.265 9.48063 107.307 9.49422 107.348 9.50768C107.512 9.56416 107.666 9.63095 107.807 9.70795C107.973 8.61265 107.806 7.86689 107.233 7.19159C106.601 6.44805 105.461 6.12988 104.002 6.12988H99.7667C99.4687 6.12988 99.2145 6.35381 99.1685 6.65864L97.4044 18.216C97.3696 18.4446 97.5402 18.6509 97.7633 18.6509H100.378L101.741 9.72285Z" fill="#28356A"/>
<rect x="127.971" y="0.401163" width="36.1047" height="24.8721" rx="2.80814" fill="white"/>
<rect x="127.971" y="0.401163" width="36.1047" height="24.8721" rx="2.80814" stroke="#F2F4F7" stroke-width="0.802326"/>
<path d="M156.147 15.1155H156.165L157.681 11.3088H158.748L155.47 18.9407H154.459L155.677 16.2717L153.527 11.3088H154.593L156.147 15.1155ZM151.017 11.136C151.742 11.1361 152.315 11.3336 152.735 11.7229C153.155 12.1122 153.362 12.6562 153.362 13.342V16.6116H152.423V15.8762H152.381C151.973 16.4816 151.437 16.7843 150.761 16.7844C150.189 16.7844 149.701 16.611 149.317 16.2649C148.939 15.9435 148.727 15.4675 148.739 14.967C148.739 14.4172 148.946 13.9849 149.354 13.6575C149.762 13.33 150.31 13.1692 150.993 13.1692C151.577 13.1692 152.053 13.2804 152.43 13.4905V13.262C152.43 12.9221 152.284 12.6006 152.028 12.3782C151.766 12.1433 151.431 12.0129 151.083 12.0129C150.535 12.013 150.103 12.2485 149.787 12.718L148.921 12.1682C149.384 11.4822 150.085 11.136 151.017 11.136ZM146.37 8.86157C146.997 8.84921 147.607 9.09045 148.051 9.5354C148.941 10.3759 148.995 11.7911 148.161 12.6995L148.051 12.8108C147.594 13.2495 147.034 13.4719 146.37 13.4719H144.75V16.6116H143.769V8.86157H146.37ZM151.145 13.9719C150.749 13.9719 150.414 14.0715 150.146 14.2629C149.884 14.4544 149.75 14.6953 149.75 14.9856C149.75 15.2452 149.872 15.4867 150.073 15.635C150.292 15.8079 150.56 15.901 150.834 15.8948C151.249 15.8946 151.645 15.7274 151.937 15.4309C152.26 15.122 152.424 14.7573 152.424 14.3372C152.12 14.09 151.693 13.9658 151.145 13.9719ZM144.75 12.5198H146.395C146.761 12.5321 147.114 12.3841 147.364 12.1184C147.875 11.5808 147.863 10.7157 147.333 10.1965C147.084 9.94937 146.748 9.81375 146.395 9.81372H144.75V12.5198Z" fill="#3C4043"/>
<path d="M141.362 12.7922C141.362 12.4893 141.338 12.1865 141.289 11.8899H137.153V13.6017H139.522C139.425 14.1517 139.108 14.6461 138.645 14.9551V16.0675H140.058C140.887 15.295 141.362 14.1517 141.362 12.7922Z" fill="#4285F4"/>
<path d="M137.154 17.1429C138.335 17.1429 139.334 16.7473 140.059 16.0675L138.646 14.9552C138.25 15.2271 137.744 15.3816 137.154 15.3816C136.008 15.3816 135.04 14.5967 134.693 13.5461H133.237V14.6956C133.98 16.1973 135.497 17.1429 137.154 17.1429Z" fill="#34A853"/>
<path d="M134.693 13.546C134.51 12.9959 134.51 12.3965 134.693 11.8403V10.697H133.237C132.609 11.9515 132.609 13.4347 133.237 14.6892L134.693 13.546Z" fill="#FBBC04"/>
<path d="M137.154 10.005C137.781 9.99259 138.384 10.2336 138.835 10.6724L140.09 9.39932C139.292 8.64537 138.244 8.23132 137.154 8.24368C135.497 8.24368 133.98 9.19538 133.237 10.6971L134.693 11.8466C135.04 10.7898 136.008 10.005 137.154 10.005Z" fill="#EA4335"/>
<rect x="170.494" y="0.401163" width="36.1047" height="24.8721" rx="4.41279" fill="white"/>
<rect x="170.494" y="0.401163" width="36.1047" height="24.8721" rx="4.41279" stroke="#F2F4F7" stroke-width="0.802326"/>
<path fill-rule="evenodd" clip-rule="evenodd" d="M180.281 8.92539C179.971 9.30184 179.474 9.59876 178.978 9.55634C178.916 9.04734 179.159 8.50653 179.443 8.1725C179.753 7.78544 180.297 7.50974 180.736 7.48853C180.788 8.01874 180.586 8.53834 180.281 8.92539ZM180.731 9.65703C180.293 9.63122 179.894 9.79189 179.572 9.92167C179.364 10.0052 179.189 10.0759 179.055 10.0759C178.905 10.0759 178.722 10.0014 178.517 9.91775C178.248 9.80814 177.94 9.68283 177.617 9.68885C176.878 9.69945 176.19 10.1289 175.812 10.8129C175.036 12.1808 175.611 14.2062 176.36 15.3197C176.728 15.8711 177.167 16.4755 177.746 16.4543C178.001 16.4445 178.185 16.3647 178.374 16.2822C178.593 16.1872 178.82 16.0885 179.174 16.0885C179.516 16.0885 179.733 16.1846 179.941 16.2769C180.139 16.3646 180.329 16.4489 180.612 16.4437C181.212 16.4331 181.589 15.8923 181.956 15.3409C182.353 14.7491 182.527 14.1715 182.553 14.0838L182.556 14.0737C182.556 14.073 182.551 14.0707 182.542 14.0667L182.542 14.0667C182.41 14.0045 181.397 13.5293 181.387 12.2551C181.378 11.1855 182.191 10.6436 182.318 10.5583C182.326 10.5531 182.332 10.5496 182.334 10.5478C181.817 9.76307 181.01 9.67824 180.731 9.65703ZM184.884 16.3854V8.11946H187.909C189.471 8.11946 190.562 9.22229 190.562 10.8341C190.562 12.446 189.45 13.5594 187.868 13.5594H186.135V16.3854H184.884ZM186.135 9.20111H187.578C188.664 9.20111 189.284 9.79494 189.284 10.8395C189.284 11.884 188.664 12.4831 187.573 12.4831H186.135V9.20111ZM194.695 15.3939C194.364 16.0408 193.635 16.449 192.848 16.449C191.685 16.449 190.873 15.7385 190.873 14.6675C190.873 13.6071 191.659 12.9974 193.112 12.9072L194.674 12.8118V12.3558C194.674 11.6824 194.245 11.3166 193.479 11.3166C192.848 11.3166 192.388 11.6506 192.295 12.1596H191.168C191.204 11.0886 192.186 10.3092 193.516 10.3092C194.948 10.3092 195.879 11.078 195.879 12.271V16.3854H194.721V15.3939H194.695ZM193.185 15.4682C192.518 15.4682 192.093 15.1395 192.093 14.6358C192.093 14.1162 192.502 13.8139 193.283 13.7662L194.674 13.6761V14.1427C194.674 14.9168 194.033 15.4682 193.185 15.4682ZM199.722 16.7089C199.22 18.1564 198.646 18.6336 197.425 18.6336C197.332 18.6336 197.022 18.623 196.95 18.6018V17.6103C197.027 17.6209 197.219 17.6315 197.317 17.6315C197.87 17.6315 198.181 17.3929 198.372 16.7725L198.486 16.4067L196.365 10.3888H197.674L199.148 15.272H199.174L200.648 10.3888H201.92L199.722 16.7089Z" fill="black"/>
</svg>
