<svg width="27" height="27" viewBox="0 0 27 27" fill="none" xmlns="http://www.w3.org/2000/svg">
<path d="M25.7333 10.8C24.9333 9.86663 23.8666 9.33333 22.6666 9.33333H16.5333L17.3333 7.46663C18.4 4.66666 16.9333 1.46666 14.1333 0.4C13.4666 0.13333 12.8 0 12.1333 0C11.6 0 11.0666 0.26666 10.9333 0.8L7.06667 9.33333H4C1.73334 9.33333 0 11.0666 0 13.3333V22.6666C0 24.9333 1.73334 26.6666 4 26.6666H20.9333C22.9333 26.6666 24.5333 25.3333 24.9333 23.3333L26.6666 14C26.8 12.9333 26.5333 11.7333 25.7333 10.8ZM6.66667 24H4C3.2 24 2.66667 23.4666 2.66667 22.6666V13.3333C2.66667 12.5333 3.2 12 4 12H6.66667V24Z" fill="#0B3947"/>
</svg>
