<svg width="39" height="39" viewBox="0 0 39 39" fill="none" xmlns="http://www.w3.org/2000/svg">
<g clip-path="url(#clip0_234_10830)">
<path fill-rule="evenodd" clip-rule="evenodd" d="M19.4866 27.5292C19.5737 27.5293 19.9111 27.5328 20.4176 27.6209L20.3488 28.745C20.3259 29.3415 19.8212 29.8233 19.2247 29.8233C17.8941 29.8233 16.9765 30.2133 16.3571 30.9933C14.9576 32.7827 15.4394 36.3386 15.7376 37.5774C15.8294 37.9215 15.7376 38.2886 15.5312 38.5639C15.3018 38.8392 14.9806 38.9998 14.6365 38.9998H10.3235C9.68118 38.9998 9.17648 38.495 9.17648 37.8527V27.5292H19.4866ZM32.2392 0.634538C32.4755 0.157357 33.0032 -0.0880994 33.5285 0.0289006C34.047 0.152787 34.4118 0.613901 34.4118 1.14613V11.5867C37.027 12.1189 39 14.4359 39 17.2049C39 19.9739 37.027 22.2933 34.4118 22.8255V33.2638C34.4118 33.796 34.047 34.2594 33.5285 34.381C33.442 34.401 33.3535 34.411 33.2647 34.4108C32.8357 34.4108 32.4365 34.1722 32.2392 33.7776C28.0158 25.333 19.5849 25.2344 19.5 25.2344H8.02941C4.86582 25.2344 2.29411 22.6627 2.29411 19.4991V18.352H1.14707C0.513886 18.352 0 17.8404 0 17.205C0 16.5718 0.513886 16.0579 1.14705 16.0579H2.29411V14.9109C2.29411 11.7495 4.86582 9.17554 8.02941 9.17554H19.4977C19.8418 9.17324 28.0387 9.03331 32.2392 0.634538Z" fill="#062833"/>
</g>
<defs>
<clipPath id="clip0_234_10830">
<rect width="39" height="39" fill="white"/>
</clipPath>
</defs>
</svg>
