<svg width="39" height="39" viewBox="0 0 39 39" fill="none" xmlns="http://www.w3.org/2000/svg">
<path d="M14.6266 16.25C18.2164 16.25 21.1266 13.3399 21.1266 9.75C21.1266 6.16015 18.2164 3.25 14.6266 3.25C11.0367 3.25 8.12659 6.16015 8.12659 9.75C8.12659 13.3399 11.0367 16.25 14.6266 16.25Z" fill="#062833"/>
<path d="M14.6266 34.1267C20.9088 34.1267 26.0016 31.2166 26.0016 27.6267C26.0016 24.0369 20.9088 21.1267 14.6266 21.1267C8.34435 21.1267 3.25159 24.0369 3.25159 27.6267C3.25159 31.2166 8.34435 34.1267 14.6266 34.1267Z" fill="#062833"/>
<path d="M34.1243 27.6257C34.1243 30.318 30.8166 32.5006 26.778 32.5006C27.9679 31.2001 28.786 29.5676 28.786 27.6278C28.786 25.686 27.9659 24.052 26.7738 22.7507C30.8124 22.7507 34.1243 24.9333 34.1243 27.6257Z" fill="#062833"/>
<path d="M29.2493 9.75122C29.2493 12.4436 27.0668 14.6262 24.3743 14.6262C23.7872 14.6262 23.2245 14.5224 22.7032 14.3322C23.472 12.9801 23.911 11.416 23.911 9.74942C23.911 8.08404 23.4726 6.52106 22.7048 5.1696C23.2256 4.97978 23.7879 4.87622 24.3743 4.87622C27.0668 4.87622 29.2493 7.05884 29.2493 9.75122Z" fill="#062833"/>
</svg>
